<svg width="41" height="41" viewBox="0 0 41 41" fill="none" xmlns="http://www.w3.org/2000/svg">
<g clip-path="url(#clip0_326_8)">
<path d="M29.296 12.6854C31.0732 14.5637 32.0314 17.0711 31.9599 19.656C31.8884 22.2409 30.7929 24.6915 28.9146 26.4687C25.9218 29.3002 20.6706 30.2832 13.1777 29.505C12.761 29.4617 12.3736 29.2705 12.086 28.9659C11.7983 28.6614 11.6295 28.2637 11.6101 27.8452L11.5886 27.3452C11.3069 20.0925 12.5868 15.0723 15.5127 12.3039C17.3911 10.5267 19.8985 9.56848 22.4834 9.64002C25.0682 9.71155 27.5188 10.807 29.296 12.6854ZM24.9376 16.809C24.2541 16.0866 23.3116 15.6652 22.3174 15.6377C21.3232 15.6102 20.3588 15.9788 19.6364 16.6623C18.9139 17.3458 18.4926 18.2884 18.4651 19.2825C18.4376 20.2767 18.8061 21.2411 19.4897 21.9636C20.1732 22.686 21.1157 23.1073 22.1099 23.1349C23.1041 23.1624 24.0685 22.7938 24.7909 22.1103C25.5134 21.4267 25.9347 20.4842 25.9622 19.49C25.9897 18.4958 25.6212 17.5315 24.9376 16.809Z" fill="#800080"/>
</g>
<defs>
<clipPath id="clip0_326_8">
<rect width="28" height="28" fill="white" transform="translate(21.3086 0.969421) rotate(46.5852)"/>
</clipPath>
</defs>
</svg>
