<svg width="3384" height="2917" viewBox="0 0 3384 2917" fill="none" xmlns="http://www.w3.org/2000/svg">
<g filter="url(#filter0_f_117_14)">
<rect x="754.974" y="77.5815" width="2552.03" height="2403.16" rx="94" fill="#FFEF9A"/>
</g>
<g filter="url(#filter1_i_117_14)">
<path d="M3136.86 1470.56C3136.86 2081.32 2641.75 2576.44 2030.99 2576.44C1420.23 2576.44 925.108 2081.32 925.108 1470.56C925.108 859.803 1420.23 364.685 2030.99 364.685C2641.75 364.685 3136.86 859.803 3136.86 1470.56Z" fill="url(#paint0_linear_117_14)"/>
</g>
<g filter="url(#filter2_b_117_14)">
<g filter="url(#filter3_i_117_14)">
<path d="M2661.83 2040.82C2669.51 1997.18 2673.52 1952.28 2673.52 1906.46C2673.52 1477.79 2322.78 1130.29 1890.12 1130.29C1568.47 1130.29 1292.1 1322.35 1171.45 1597.02C1073.7 1513.42 946.874 1462.94 808.274 1462.94C499.229 1462.94 248.7 1713.91 248.7 2023.5C248.7 2040.74 249.476 2057.8 250.997 2074.64C102.352 2146.78 6.96182e-05 2298.14 6.96182e-05 2473.19C6.96182e-05 2718.14 200.424 2916.71 447.659 2916.71H2561.61C2808.84 2916.71 3009.26 2718.14 3009.26 2473.19C3009.26 2262.37 2860.81 2085.91 2661.83 2040.82Z" fill="url(#paint1_linear_117_14)"/>
</g>
</g>
<defs>
<filter id="filter0_f_117_14" x="677.974" y="0.581543" width="2706.03" height="2557.16" filterUnits="userSpaceOnUse" color-interpolation-filters="sRGB">
<feFlood flood-opacity="0" result="BackgroundImageFix"/>
<feBlend mode="normal" in="SourceGraphic" in2="BackgroundImageFix" result="shape"/>
<feGaussianBlur stdDeviation="38.5" result="effect1_foregroundBlur_117_14"/>
</filter>
<filter id="filter1_i_117_14" x="925.108" y="364.685" width="2211.76" height="2216.76" filterUnits="userSpaceOnUse" color-interpolation-filters="sRGB">
<feFlood flood-opacity="0" result="BackgroundImageFix"/>
<feBlend mode="normal" in="SourceGraphic" in2="BackgroundImageFix" result="shape"/>
<feColorMatrix in="SourceAlpha" type="matrix" values="0 0 0 0 0 0 0 0 0 0 0 0 0 0 0 0 0 0 127 0" result="hardAlpha"/>
<feOffset dy="5"/>
<feGaussianBlur stdDeviation="9"/>
<feComposite in2="hardAlpha" operator="arithmetic" k2="-1" k3="1"/>
<feColorMatrix type="matrix" values="0 0 0 0 1 0 0 0 0 1 0 0 0 0 1 0 0 0 0.81 0"/>
<feBlend mode="normal" in2="shape" result="effect1_innerShadow_117_14"/>
</filter>
<filter id="filter2_b_117_14" x="-27" y="1103.29" width="3063.26" height="1840.42" filterUnits="userSpaceOnUse" color-interpolation-filters="sRGB">
<feFlood flood-opacity="0" result="BackgroundImageFix"/>
<feGaussianBlur in="BackgroundImageFix" stdDeviation="13.5"/>
<feComposite in2="SourceAlpha" operator="in" result="effect1_backgroundBlur_117_14"/>
<feBlend mode="normal" in="SourceGraphic" in2="effect1_backgroundBlur_117_14" result="shape"/>
</filter>
<filter id="filter3_i_117_14" x="0" y="1130.29" width="3009.26" height="1796.42" filterUnits="userSpaceOnUse" color-interpolation-filters="sRGB">
<feFlood flood-opacity="0" result="BackgroundImageFix"/>
<feBlend mode="normal" in="SourceGraphic" in2="BackgroundImageFix" result="shape"/>
<feColorMatrix in="SourceAlpha" type="matrix" values="0 0 0 0 0 0 0 0 0 0 0 0 0 0 0 0 0 0 127 0" result="hardAlpha"/>
<feOffset dy="11"/>
<feGaussianBlur stdDeviation="5"/>
<feComposite in2="hardAlpha" operator="arithmetic" k2="-1" k3="1"/>
<feColorMatrix type="matrix" values="0 0 0 0 1 0 0 0 0 1 0 0 0 0 1 0 0 0 1 0"/>
<feBlend mode="normal" in2="shape" result="effect1_innerShadow_117_14"/>
</filter>
<linearGradient id="paint0_linear_117_14" x1="1863" y1="2072.5" x2="2772.9" y2="476.672" gradientUnits="userSpaceOnUse">
<stop stop-color="#FF9900"/>
<stop offset="1" stop-color="#FFEE94"/>
</linearGradient>
<linearGradient id="paint1_linear_117_14" x1="191.402" y1="2757.21" x2="3227.25" y2="486.969" gradientUnits="userSpaceOnUse">
<stop stop-color="white"/>
<stop offset="1" stop-color="white" stop-opacity="0.58"/>
</linearGradient>
</defs>
</svg>
